<svg aria-hidden="true" style="position: absolute; width: 0; height: 0; overflow: hidden;" version="1.1" xmlns="http://www.w3.org/2000/svg" xmlns:xlink="http://www.w3.org/1999/xlink">
<defs>
<symbol id="icon-mail" viewBox="0 0 43 32">
<path d="M37.347-0.003h-32.011c-2.201 0-3.983 1.801-3.983 4.001l-0.019 24.009c0 2.201 1.801 4.001 4.001 4.001h32.011c2.201 0 4.001-1.801 4.001-4.001v-24.009c0-2.201-1.801-4.001-4.001-4.001zM36.546 8.501l-14.144 8.84c-0.302 0.188-0.668 0.3-1.060 0.3s-0.759-0.112-1.069-0.305l0.009 0.005-14.146-8.843c-0.504-0.301-0.836-0.843-0.836-1.463 0-0.938 0.761-1.699 1.699-1.699 0.349 0 0.673 0.105 0.943 0.286l-0.006-0.004 13.405 8.384 13.405-8.384c0.264-0.176 0.588-0.282 0.937-0.282 0.938 0 1.699 0.761 1.699 1.699 0 0.62-0.332 1.162-0.828 1.459l-0.008 0.004z"></path>
</symbol>
<symbol id="icon-phone" viewBox="0 0 32 32">
<path d="M28.881 21.834l-4.527-0.517c-0.124-0.015-0.268-0.024-0.413-0.024-0.981 0-1.868 0.398-2.51 1.041l-3.278 3.278c-5.084-2.623-9.125-6.663-11.678-11.596l-0.070-0.15 3.3-3.298c0.642-0.642 1.039-1.529 1.039-2.508 0-0.146-0.009-0.289-0.026-0.43l0.002 0.017-0.517-4.492c-0.213-1.785-1.718-3.155-3.543-3.155-0.001 0-0.003 0-0.004 0h-3.083c-2.015 0-3.69 1.675-3.564 3.69 0.943 15.221 13.118 27.378 28.322 28.324 2.015 0.123 3.69-1.552 3.69-3.566v-3.084c0-0.006 0-0.013 0-0.020 0-1.812-1.364-3.305-3.121-3.508l-0.016-0.002z"></path>
</symbol>
<symbol id="icon-client" viewBox="0 0 32 32">
<path d="M16.003 16.003c4.419 0 8.001-3.582 8.001-8.001s-3.582-8.001-8.001-8.001v0c-4.419 0-8.001 3.582-8.001 8.001s3.582 8.001 8.001 8.001v0zM16.003 20.003c-5.34 0-16.003 2.68-16.003 8.001v2c0 1.099 0.901 2 2 2h28.004c1.099 0 2-0.901 2-2v-2c0-5.321-10.663-8.001-16.003-8.001z"></path>
</symbol>
<symbol id="icon-icon_send__tg" viewBox="0 0 38 32">
<path d="M38.406-0.003l-38.406 18.003 12.274 3.788 18.931-14.79-14.399 16.188 0.011 0.005-0.014-0.005v8.816l6.883-6.692 8.721 2.692 5.999-28.004z"></path>
</symbol>
</defs>
</svg>
